<?xml version="1.0" standalone="no"?>
<!DOCTYPE svg PUBLIC "-//W3C//DTD SVG 20010904//EN"
 "http://www.w3.org/TR/2001/REC-SVG-20010904/DTD/svg10.dtd">
<svg version="1.0" xmlns="http://www.w3.org/2000/svg"
 width="417.000000pt" height="417.000000pt" viewBox="0 0 417.000000 417.000000"
 preserveAspectRatio="xMidYMid meet">
<metadata>
Created by potrace 1.11, written by Peter Selinger 2001-2013
</metadata>
<g transform="translate(0.000000,417.000000) scale(0.100000,-0.100000)"
fill="#000000" stroke="none">
<path d="M1825 4155 c-120 -16 -281 -53 -405 -92 -146 -48 -357 -150 -483
-235 -515 -347 -840 -867 -921 -1478 -14 -104 -15 -453 -1 -530 50 -288 100
-450 197 -648 227 -462 618 -824 1098 -1017 114 -46 331 -107 423 -120 27 -4
59 -8 70 -11 42 -8 193 -17 282 -17 146 0 253 11 450 48 175 33 459 149 635
258 69 44 227 159 273 200 234 209 402 432 526 697 46 99 62 140 102 268 40
130 56 211 85 422 19 142 2 417 -37 614 -51 252 -158 506 -309 732 -73 109
-78 116 -187 240 -205 232 -485 424 -802 548 -89 35 -271 87 -356 101 -22 3
-67 11 -100 16 -96 16 -428 18 -540 4z"/>
</g>
</svg>
