<?xml version="1.0" encoding="UTF-8"?>
<svg enable-background="new 0 0 414 83.6" id="neustar-logo" viewBox="0 0 414 83.6" xml:space="preserve" xmlns="http://www.w3.org/2000/svg" xmlns:xlink="http://www.w3.org/1999/xlink"> <g> <path d="M96.1,10.3c-9,0-16.2,3.3-21.1,8.4c-6.4,6.5-9.5,15.9-9.5,26.5c0,10.8,3.6,20.1,10.2,26.5c5.2,5,11.8,8.1,20.9,8.1c8.4,0,16.7-2.7,22.3-9.3c2.5-3,5.1-8.1,5.6-12h-15c-0.7,2.4-1.8,4.2-3.2,5.6c-2.3,2.3-5.2,3.2-9.8,3.2c-4.4,0-7.6-1.9-10-4.1c-3.1-3-4.9-7.7-4.9-12.6c0-0.2,0-0.4,0-0.5l0-0.2h44.5c0-1.5,0.1-4.3,0.1-4.3c0-0.7,0-1.4,0-2.1c0-7.5-1.3-14.3-5.8-21C114.8,14.3,105.9,10.3,96.1,10.3z M81.2,38.6v-0.2c0.1-4.4,1.2-7.5,3.5-10.5c2.3-3.1,6.3-5.2,11.3-5.2c4.6,0,8,1.6,10.2,3.9c2.6,2.8,4,6.7,4.1,11.7l0,0.2H81.2z" fill="#05cc79"></path> <path d="M34.2,10.3c-7.6,0-15.5,3.2-19.4,10.2L14.5,21v-9H0.2v66.2h15.7V49.5c0-5.3,0.1-11.4,2.2-16.1c2.2-4.9,6-8.5,11.7-8.5c4.3,0,7.1,1.2,8.8,3.4c1.7,2.2,2.4,5.4,2.4,9.3v40.6h15.7V34C56.6,20.2,48.3,10.3,34.2,10.3z" fill="#05cc79"></path> <path d="M176.4,47c0,5.4-1,11.4-4.9,15.1c-1.9,2-4.6,3.4-8.3,3.4c-4.3,0-7.2-1.2-9-3.5c-1.9-2.2-2.6-5.4-2.6-9.4V12h-15.7v44.2c0,14.1,8.7,23.6,22.9,23.6c8.4,0,16.1-3.7,19.2-10.2v13.8l14.1-11.2V12h-15.7V47z" fill="#05cc79"></path> <path d="M409.3,11.1c-7.8,0-15.9,3.1-19,10.7V12h-14.6v66.2h15.8V44.8c0-5.4,1.5-10.1,4.4-13.5c2.9-3.4,7.2-5.4,12.9-5.4c1.7,0,3.6,0.2,5.3,0.6v-15C412.5,11.2,410.9,11.1,409.3,11.1z" fill="#05cc79"></path> <path d="M284.4,63c-1.3-1.2-1.8-3.1-1.8-5.7V31.6h16.8V18.8h-16.8V0l-15.7,12.5v46.3c0,12.7,6.6,20.3,19.9,20.3c4.7,0,9.1-0.6,13.5-1.8V64.2c-4.3,0.5-6.9,0.6-10.2,0.6C287.6,64.8,285.7,64.3,284.4,63z" fill="#05cc79"></path> <path d="M240.6,39.2c-1.4-0.2-2.6-0.4-3.7-0.6c-0.3-0.1-0.7-0.1-1-0.1c-0.2,0-0.5-0.1-0.7-0.1c-0.2,0-0.4-0.1-0.6-0.1l-4.1,3.3l4.1-3.3c-2.5-0.3-4.5-0.6-8.2-1c-3.6-0.5-7.8-2-7.8-6.9c0-2.9,2.1-4.5,4.1-5.6c2-1.2,5-1.6,8-1.6c0,0,0,0,0,0c6.5,0,10.9,2.7,14,6.2l0.4,0.5l11-8.7c-0.1-0.2-0.2-0.3-0.4-0.5c-0.1-0.1-0.1-0.2-0.2-0.3l-0.1-0.1c-0.3-0.5-0.7-0.9-1.1-1.3c-0.3-0.4-0.7-0.7-1-1.1c-5.6-5.3-13.8-7.4-21.8-7.4c-6.8,0-13.6,1.6-18.9,5c-4,2.6-7,6.3-8.2,11.1c-0.3,1.3-0.5,2.6-0.5,4c0,0.2,0,0.8,0,1.5c0,0.1,0,0.3,0,0.4c0,0.9,0.1,1.9,0.2,2.3c1.2,7.1,6.9,13.1,14.9,14.8c0.4,0.1,0.9,0.2,1.3,0.3l0,0c0.2,0,0.5,0.1,0.7,0.1c0.1,0,0.2,0,0.4,0.1c5.2,0.9,10.9,1.3,16,2.1c3.8,0.6,6.8,2.7,6.8,6.1c0,3-2,4.6-3.3,5.5c-1.8,1.2-3.7,1.9-5.3,2.3c-1.9,0.5-4.1,0.5-5.7,0.5c-2.7,0-4.9-0.4-6.6-0.8c-5.2-1.5-10-5.4-12.4-8.4l-11.1,8.9c0.9,1.2,4.5,5.4,9.4,8.2c6.9,3.9,13.3,5.4,19.8,5.4c7.3,0,14.4-1.3,20-4.7c5.5-3.3,9.5-8.5,9.6-15.8c0-0.5,0.1-0.9,0.1-1.4C258.6,47.4,251,40.9,240.6,39.2z" fill="#05cc79"></path> <path d="M337.8,10.3c-14.7,0-26.5,6.6-27.5,21.3h15.4c0.5-6,4.8-9.2,12.1-9.2c9,0,11.2,4.2,11.2,10.4v4.1l-19.5,1.4c-12.6,0.9-22.4,8.2-22.4,20.8c0,1,0.1,2,0.2,2.9c1.3,9.6,9.4,17.8,23.7,17.8c0.3,0,1,0,1,0c8.4-0.6,14.7-5,16.9-9.9v8.3h15.5v-41c0-4.5-0.3-9.2-1.9-13.4C358.8,13.9,349.1,10.3,337.8,10.3z M349,51.8c0,9.8-7,15.1-16.9,15.1c-5,0-9.4-3.2-9.4-8.3c0-5.3,4.7-8.3,9.5-8.7l16.8-1.3V51.8z" fill="#05cc79"></path> <path d="M407.9,65.4c-3.6,0-6.3,2.8-6.3,6.4c0,3.6,2.7,6.4,6.3,6.4c3.6,0,6.3-2.8,6.3-6.4C414.2,68.2,411.5,65.4,407.9,65.4z M407.9,77.1c-3.1,0-5.1-2.2-5.1-5.3c0-3,2-5.3,5.1-5.3c3.1,0,5.1,2.2,5.1,5.3C413,74.8,411,77.1,407.9,77.1z" fill="#05cc79"></path> <path d="M410.5,70.4c0-1.4-1.1-2.1-2.4-2.1h-2.5V75h1.2v-2.5h1.3l1.1,2.5h1.3l-1.2-2.7C410.1,72,410.5,71.3,410.5,70.4z M408.1,71.5h-1.3v-2.1h1.3c0.6,0,1.2,0.3,1.2,1C409.3,71.1,408.8,71.5,408.1,71.5z" fill="#05cc79"></path> </g> </svg>