<?xml version="1.0" encoding="UTF-8"?>
<svg width="200px" height="75px" viewBox="0 0 130 36" version="1.1" xmlns="http://www.w3.org/2000/svg" xmlns:xlink="http://www.w3.org/1999/xlink">
    <!-- Generator: Sketch 48.2 (47327) - http://www.bohemiancoding.com/sketch -->
    <title>Group 3</title>
    <desc>Created with Sketch.</desc>
    <defs>
        <path d="M122.78746,12.6242258 C122.78746,12.5360258 123.154446,12.4982258 123.534049,12.4848129 L129.416495,12.4848129 C129.871759,12.4848129 129.871759,13.9760839 129.416495,13.9760839 L124.431959,13.9760839 L124.431959,17.1472194 L128.834494,17.1472194 C129.289757,17.1472194 129.289757,18.6376774 128.834494,18.6376774 L124.431959,18.6376774 L124.431959,23.1980645 C124.431959,23.3878774 122.78746,23.3878774 122.78746,23.1980645 L122.78746,12.6242258 Z" id="path-1"></path>
    </defs>
    <g id="Top_menu_main" stroke="none" stroke-width="1" fill="none" fill-rule="evenodd" transform="translate(-240.000000, -29.000000)">
        <g id="Group-3" transform="translate(240.000000, 29.000000)">
            <g id="Group-6565" transform="translate(0.000000, 0.161290)">
                <g id="Group" transform="translate(0.000000, -0.000000)">
                    <polygon id="Clip-6564" fill="#FFFFFF" points="3.92149627 15.7246387 11.5480454 28.9168387 15.3963356 22.2607871 22.9541313 22.2607871 15.3269432 35.4533935 7.76976619 35.4533935 0.142586248 22.2607871"></polygon>
                    <polygon id="Clip-6567" fill="#FFFFFF" points="23.9055202 31.1714258 31.5320571 17.9788194 23.8361685 17.9788194 20.0578812 11.442671 35.3116061 11.442671 39.0898934 17.9788194 31.4633158 31.1714258"></polygon>
                    <polygon id="Clip-6570" fill="#FFFFFF" points="26.737099 7.16110968 11.4833333 7.16110968 15.3316236 13.8171613 11.5527258 20.3537161 3.92552958 7.16110968 7.70443959 0.624554839 22.9581605 0.624554839"></polygon>
                    <path d="M55.0219145,12.6746258 C55.0219145,12.4222194 56.6411805,12.4340065 56.7679184,12.6746258 L59.7403577,21.0255806 L62.7134076,12.6746258 C62.8401455,12.4340065 64.4594115,12.4222194 64.4594115,12.6746258 L60.7271552,23.1476645 C60.6641118,23.286671 60.259275,23.337071 59.7403577,23.337071 C59.208783,23.337071 58.8172141,23.286671 58.7535196,23.1476645 L55.0219145,12.6746258 Z" id="Clip-6573" fill="#FFFFFF"></path>
                    <path d="M71.0397298,12.6242258 C71.0397298,12.5360258 71.4067162,12.4982258 71.7989363,12.4848129 L77.6813821,12.4848129 C78.1366048,12.4848129 78.1366048,13.9760839 77.6813821,13.9760839 L72.6968462,13.9760839 L72.6968462,17.1472194 L77.0987296,17.1472194 C77.5546035,17.1472194 77.5546035,18.6376774 77.0987296,18.6376774 L72.6968462,18.6376774 L72.6968462,21.8462065 L77.6813821,21.8462065 C78.1366048,21.8462065 78.1366048,23.3374774 77.6813821,23.3374774 L71.7989363,23.3374774 C71.4067162,23.3374774 71.0397298,23.2862645 71.0397298,23.1980645 L71.0397298,12.6242258 Z" id="Clip-6576" fill="#FFFFFF"></path>
                    <path d="M86.6396438,14.1150903 L86.6396438,17.8040452 L89.4985726,17.8040452 C90.5106036,17.8166452 91.2571933,16.7302 91.2571933,15.9343677 C91.2571933,15.138129 90.4979868,14.1150903 89.4985726,14.1150903 L86.6396438,14.1150903 Z M88.8661447,19.6359226 C88.7904439,19.4847226 88.6511298,19.2945032 88.3856477,19.2945032 L86.6396438,19.2945032 L86.6396438,23.185871 C86.6396438,23.374871 84.9825681,23.374871 84.9825681,23.185871 L84.9825681,12.6238194 C84.9825681,12.5482194 85.3243209,12.4852194 85.7795843,12.4726194 L89.4985726,12.4726194 C91.3076198,12.4852194 92.9016929,14.1402903 92.9016929,15.9343677 C92.9016929,17.3618258 91.9022379,18.8396839 90.586915,19.1685032 L92.9016929,23.1602645 C92.9016929,23.400071 91.0547952,23.3882839 90.9286678,23.1476645 L88.8661447,19.6359226 Z" id="Clip-6579" fill="#FFFFFF"></path>
                    <path d="M99.8617772,12.6242258 C99.8617772,12.4344129 101.518894,12.4344129 101.518894,12.6242258 L101.518894,23.1980645 C101.518894,23.3878774 99.8617772,23.3878774 99.8617772,23.1980645 L99.8617772,12.6242258 Z" id="Clip-6582" fill="#FFFFFF"></path>
                    <path d="M108.857075,12.6242258 C108.857075,12.5360258 109.224062,12.4982258 109.603665,12.4848129 L115.48546,12.4848129 C115.941374,12.4848129 115.941374,13.9760839 115.48546,13.9760839 L110.501575,13.9760839 L110.501575,17.1472194 L114.90411,17.1472194 C115.359373,17.1472194 115.359373,18.6376774 114.90411,18.6376774 L110.501575,18.6376774 L110.501575,23.1980645 C110.501575,23.3878774 108.857075,23.3878774 108.857075,23.1980645 L108.857075,12.6242258 Z" id="Clip-6585" fill="#FFFFFF"></path>
                    <mask id="mask-2" fill="white">
                        <use xlink:href="#path-1"></use>
                    </mask>
                    <use id="Clip-6588" fill="#FFFFFF" xlink:href="#path-1"></use>
                </g>
            </g>
            <g id="Group-6568" transform="translate(19.332211, 10.838710)"></g>
            <g id="Group-6571" transform="translate(3.866442, 0.193548)"></g>
            <g id="Group-6574" transform="translate(54.130191, 12.774194)"></g>
            <g id="Group-6577" transform="translate(69.595960, 12.774194)"></g>
            <g id="Group-6580" transform="translate(83.128507, 12.774194)"></g>
            <g id="Group-6583" transform="translate(97.627666, 12.774194)"></g>
            <g id="Group-6586" transform="translate(107.293771, 12.774194)"></g>
            <g id="Group-6589" transform="translate(119.859708, 12.774194)"></g>
        </g>
    </g>
</svg>
